:SAMPLES-PER-SECOND 30
:FULLY-SPECIFIED
:DEGREES
604
root  80.6397 38.6632 2.30359 -155.726 -84.4222 157.256
RightUpLeg  -4.51139 -3.16267 -9.49856
RightLeg  20.3847 1.62564 0.456165
RightFoot  -11.3654 -0.0758346 6.743
RightToes  1.45519e-009 0 -3.6325e-017
Spine  11.3395 -0.539654 -1.40169
Spine1  5.86274 -0.239272 -1.93037
HEad  -9.78596 -23.9935 -4.30023
LeftShoulder1  -0.216729 4.09248 -30.6954
LeftArm  7.44716 -3.41833 -48.3662
LeftForeArm  21.9088 -16.6904 -6.55019
LeftHand  -0.0774977 6.93381 -2.73432
RightShoulder  -0.761647 -5.64889 28.8647
RightArm  31.0015 2.96248 51.8802
RightForeArm  6.84863 18.1984 6.08734
RightHand  -0.154118 6.71462 -1.84802
LeftUpLeg  -13.0557 7.81598 -0.875708
LeftLeg  18.7274 -1.25729 -0.147704
LeftFoot  -4.95572 -0.101017 2.34692
LeftToes  -2.53752e-010 -2.07034e-011 -2.70101e-011
605
root  80.4787 38.6882 2.43481 -156.482 -84.2111 158.13
RightUpLeg  -4.11171 -2.90579 -9.70879
RightLeg  19.6838 1.52745 0.394751
RightFoot  -11.2319 -0.0828576 6.85493
RightToes  1.45519e-009 0 -3.6325e-017
Spine  11.0962 -0.618822 -1.93951
Spine1  5.91897 -0.422153 -1.70574
HEad  -9.64682 -23.3473 -4.32141
LeftShoulder1  -0.227597 4.11848 -30.8775
LeftArm  -1.04256 -3.03821 -46.8769
LeftForeArm  28.0238 -11.8714 -7.97273
LeftHand  -0.0948705 8.47886 -1.60259
RightShoulder  -0.780846 -5.68513 29.1563
RightArm  27.5902 2.49351 51.1044
RightForeArm  10.5295 15.4797 7.20428
RightHand  -0.262658 5.33499 -3.12946
LeftUpLeg  -12.7144 8.28258 -1.08955
LeftLeg  18.3494 -1.45353 -0.229722
LeftFoot  -5.13673 -0.111516 2.63153
LeftToes  -2.53752e-010 -2.07034e-011 -2.70101e-011
606
root  80.3622 38.6941 2.54508 -156.712 -83.9139 158.5
RightUpLeg  -3.92758 -2.62464 -9.93982
RightLeg  19.1706 1.36307 0.317143
RightFoot  -11.1641 -0.0865841 6.85114
RightToes  1.45519e-009 0 -3.6325e-017
Spine  11.3217 -0.631836 -2.22383
Spine1  5.25372 -0.468317 -1.73368
HEad  -9.37377 -22.9663 -4.36899
LeftShoulder1  -0.280376 4.25464 -31.2172
LeftArm  -4.72315 -2.27472 -45.3054
LeftForeArm  30.8317 -9.33728 -7.94826
LeftHand  -0.169516 11.9537 -1.80642
RightShoulder  -0.848481 -5.84962 29.5647
RightArm  23.4531 1.80775 50.1022
RightForeArm  13.4801 12.9987 7.8864
RightHand  -0.22665 5.9332 -2.71207
LeftUpLeg  -12.6483 8.46128 -1.35221
LeftLeg  18.3207 -1.31143 -0.183711
LeftFoot  -5.26855 -0.120359 2.84594
LeftToes  -2.53752e-010 -2.07034e-011 -2.70101e-011
607
root  80.2536 38.7089 2.62544 -159.345 -83.4669 161.262
RightUpLeg  -3.82608 -1.67037 -9.85678
RightLeg  18.7353 0.945789 0.146154
RightFoot  -10.9931 -0.0967344 7.24281
RightToes  1.45519e-009 0 -3.6325e-017
Spine  11.2664 -0.515508 -2.27062
Spine1  4.82043 -0.366285 -1.64991
HEad  -9.10072 -22.6417 -4.58494
LeftShoulder1  -0.251191 4.17589 -31.2436
LeftArm  -6.07698 -1.29667 -43.9284
LeftForeArm  31.7536 -7.95043 -7.83933
LeftHand  -0.0904997 13.5757 -0.17031
RightShoulder  -0.850302 -5.83667 29.8384
RightArm  20.275 0.882456 49.0844
RightForeArm  14.048 11.4583 8.01222
RightHand  -0.210409 7.86898 -2.26499
LeftUpLeg  -12.5889 8.61382 -1.31417
LeftLeg  18.3721 -1.06881 -0.0879587
LeftFoot  -5.47379 -0.116436 2.8119
LeftToes  -2.53752e-010 -2.07034e-011 -2.70101e-011
608
root  80.1871 38.7294 2.69096 -160.809 -83.1368 162.61
RightUpLeg  -3.46126 -1.55439 -9.9444
RightLeg  18.2426 1.09911 0.177532
RightFoot  -10.8518 -0.105059 7.30664
RightToes  1.45519e-009 0 -3.6325e-017
Spine  10.981 -0.433465 -2.43238
Spine1  5.27943 -0.344402 -1.41022
HEad  -9.18842 -22.5875 -4.97793
LeftShoulder1  -0.270123 4.22347 -31.4073
LeftArm  -6.5842 -0.556662 -42.5256
LeftForeArm  31.3155 -7.30108 -7.7285
LeftHand  -0.173769 15.7773 -0.944753
RightShoulder  -0.861983 -5.88523 29.5927
RightArm  18.9543 0.334322 48.9218
RightForeArm  14.1139 11.2141 7.80176
RightHand  -0.293486 5.30446 -3.4678
LeftUpLeg  -12.2311 8.70029 -1.33222
LeftLeg  18.1968 -0.782105 0.00155034
LeftFoot  -5.53897 -0.111743 2.74487
LeftToes  -2.53752e-010 -2.07034e-011 -2.70101e-011
609
root  80.1085 38.7503 2.74109 -159.839 -83.32 161.574
RightUpLeg  -2.94609 -2.3552 -10.186
RightLeg  17.6772 1.65766 0.293394
RightFoot  -10.7199 -0.113206 7.43368
RightToes  1.45519e-009 0 -3.6325e-017
Spine  10.379 -0.634503 -2.36481
Spine1  5.93337 -0.519353 -1.44048
HEad  -9.3599 -22.3915 -4.98588
LeftShoulder1  -0.295998 4.29571 -31.2472
LeftArm  -6.73859 0.039335 -41.6536
LeftForeArm  31.4949 -7.26032 -7.68077
LeftHand  -0.223007 17.1057 -1.24212
RightShoulder  -0.87313 -5.91056 29.6791
RightArm  18.342 0.367963 48.5636
RightForeArm  13.7892 10.6988 7.86124
RightHand  -0.241469 6.45927 -2.704
LeftUpLeg  -11.8845 8.12114 -1.48436
LeftLeg  17.7869 -0.461266 0.100997
LeftFoot  -5.40065 -0.126995 2.96985
LeftToes  -2.53752e-010 -2.07034e-011 -2.70101e-011
610
root  80.0779 38.7807 2.75293 -159.862 -83.3436 161.558
RightUpLeg  -2.55688 -2.94288 -10.2278
RightLeg  17.081 2.20153 0.317594
RightFoot  -10.4905 -0.126022 7.35437
RightToes  1.45519e-009 0 -3.6325e-017
Spine  10.3646 -0.670722 -2.44428
Spine1  5.72661 -0.634508 -1.0567
HEad  -9.31558 -22.224 -4.97846
LeftShoulder1  -0.330108 4.38632 -31.267
LeftArm  -6.12552 0.97503 -40.656
LeftForeArm  30.8102 -8.09073 -7.75747
LeftHand  -0.216997 15.861 -1.38419
RightShoulder  -0.873522 -5.91161 29.6798
RightArm  18.6864 -0.00724775 48.2196
RightForeArm  13.2092 11.4208 7.64109
RightHand  -0.173097 7.17497 -1.95197
LeftUpLeg  -11.642 7.88319 -1.49342
LeftLeg  17.4043 -0.500466 0.0773293
LeftFoot  -5.02071 -0.157955 3.42369
LeftToes  -2.53752e-010 -2.07034e-011 -2.70101e-011
611
root  80.0466 38.8048 2.71577 -160.033 -82.9301 161.512
RightUpLeg  -2.06995 -2.75847 -10.2907
RightLeg  16.5104 2.40965 0.23504
RightFoot  -10.5479 -0.123487 7.46468
RightToes  1.45519e-009 0 -3.6325e-017
Spine  10.3956 -0.551272 -2.68759
Spine1  5.49343 -0.565539 -0.928423
HEad  -9.18928 -21.9551 -5.16022
LeftShoulder1  -0.363124 4.47017 -31.4453
LeftArm  -4.39041 2.22355 -39.7127
LeftForeArm  28.5463 -10.0108 -7.93999
LeftHand  -0.105613 16.0828 -0.170007
RightShoulder  -0.876525 -5.92154 29.6564
RightArm  19.772 -0.264874 48.119
RightForeArm  12.7965 12.5422 7.37396
RightHand  -0.146965 7.09738 -1.75821
LeftUpLeg  -11.1192 8.30851 -1.48659
LeftLeg  17.0579 -0.48013 0.0301913
LeftFoot  -5.05003 -0.138405 3.07358
LeftToes  -2.53752e-010 -2.07034e-011 -2.70101e-011
612
root  80.0209 38.8393 2.64716 -161.701 -82.5957 163.204
RightUpLeg  -1.86977 -2.92634 -10.0815
RightLeg  16.002 2.95969 0.269409
RightFoot  -10.3424 -0.134307 7.32247
RightToes  1.45519e-009 0 -3.6325e-017
Spine  9.37349 -0.433698 -2.40983
Spine1  6.33054 -0.354367 -1.1045
HEad  -8.96839 -21.7067 -5.58862
LeftShoulder1  -0.379842 4.51868 -31.2907
LeftArm  -5.39189 2.40197 -39.6899
LeftForeArm  28.688 -10.3408 -7.40205
LeftHand  -0.0837995 12.8204 -0.328847
RightShoulder  -0.882977 -5.94081 29.6374
RightArm  21.206 -0.0397555 48.539
RightForeArm  11.6991 13.905 7.0335
RightHand  -0.204607 4.97858 -2.56372
LeftUpLeg  -10.8602 8.94083 -1.24081
LeftLeg  16.6904 -0.619758 -0.0865416
LeftFoot  -4.85274 -0.15412 3.23596
LeftToes  -2.53752e-010 -2.07034e-011 -2.70101e-011
613
root  80.047 38.829 2.57058 -159.831 -82.7205 161.314
RightUpLeg  -1.65893 -3.25528 -10.1294
RightLeg  15.6261 2.9523 0.152015
RightFoot  -10.511 -0.121999 6.9642
RightToes  1.45519e-009 0 -3.6325e-017
Spine  8.91981 -0.332697 -2.59745
Spine1  6.34138 -0.316785 -0.831568
HEad  -8.67419 -21.9834 -5.80754
LeftShoulder1  -0.365997 4.47973 -31.3665
LeftArm  -7.52283 2.32886 -40.0453
LeftForeArm  28.5152 -10.0853 -6.67832
LeftHand  -0.0137762 8.17392 0.557536
RightShoulder  -0.873165 -5.9122 29.6559
RightArm  22.3727 0.0266806 48.6057
RightForeArm  10.3182 15.1508 6.63755
RightHand  -0.153604 4.97282 -2.02792
LeftUpLeg  -10.8434 8.49038 -1.33898
LeftLeg  16.6215 -0.341327 0.007001
LeftFoot  -4.77998 -0.156243 3.21816
LeftToes  -2.53752e-010 -2.07034e-011 -2.70101e-011
614
root  80.1145 38.8107 2.48278 -159.279 -82.8534 160.648
RightUpLeg  -1.50223 -3.25959 -9.93436
RightLeg  15.5357 2.75265 0.00437631
RightFoot  -10.8132 -0.104669 6.75184
RightToes  1.45519e-009 0 -3.6325e-017
Spine  8.97253 -0.338759 -2.35286
Spine1  6.12014 -0.317332 -0.748627
HEad  -8.66901 -22.2063 -6.01588
LeftShoulder1  -0.38463 4.53413 -31.1885
LeftArm  -7.54177 2.32777 -40.9043
LeftForeArm  25.5777 -11.3996 -6.34171
LeftHand  0.0792897 11.9346 2.5846
RightShoulder  -0.884977 -5.93831 29.7569
RightArm  23.1836 0.800761 49.0719
RightForeArm  9.33909 15.6905 6.51986
RightHand  -0.187974 6.26467 -2.20809
LeftUpLeg  -10.9108 8.19806 -1.25521
LeftLeg  16.7694 -0.190105 0.111121
LeftFoot  -4.78508 -0.148615 3.04502
LeftToes  -2.53752e-010 -2.07034e-011 -2.70101e-011
615
root  80.1898 38.8029 2.37304 -158.074 -82.9244 159.299
RightUpLeg  -1.44289 -3.50946 -9.89039
RightLeg  15.6615 2.85835 0.0148042
RightFoot  -11.0707 -0.0903195 6.38755
RightToes  1.45519e-009 0 -3.6325e-017
Spine  8.53258 -0.36634 -2.13145
Spine1  6.57177 -0.327457 -0.640039
HEad  -8.66249 -22.1102 -6.26388
LeftShoulder1  -0.424751 4.63833 -31.2974
LeftArm  -7.17089 1.63635 -41.5122
LeftForeArm  23.2132 -12.7152 -6.02108
LeftHand  0.0719814 12.1752 2.08401
RightShoulder  -0.905138 -6.00028 29.67
RightArm  24.6657 1.79695 49.8607
RightForeArm  7.97068 16.8096 6.1982
RightHand  -0.187943 5.8737 -2.26097
LeftUpLeg  -10.8092 7.95876 -1.20945
LeftLeg  16.6322 -0.0976925 0.156488
LeftFoot  -4.68889 -0.139324 2.84708
LeftToes  -2.53752e-010 -2.07034e-011 -2.70101e-011
616
root  80.299 38.7975 2.22387 -158.246 -83.0268 159.306
RightUpLeg  -1.32399 -4.1257 -9.61205
RightLeg  15.631 3.22584 0.0606937
RightFoot  -11.2813 -0.0798087 5.74629
RightToes  1.45519e-009 0 -3.6325e-017
Spine  8.47777 -0.312137 -1.76046
Spine1  6.37768 -0.243618 -0.585388
HEad  -8.48123 -22.1949 -6.28082
LeftShoulder1  -0.33995 4.41397 -31.2185
LeftArm  -6.85395 1.31084 -42.3599
LeftForeArm  21.5077 -14.0544 -5.67487
LeftHand  0.180036 15.3079 3.00195
RightShoulder  -0.90854 -5.99941 29.819
RightArm  25.8656 2.23292 50.3761
RightForeArm  6.75038 18.3274 5.65702
RightHand  -0.1624 5.66759 -2.05351
LeftUpLeg  -10.7635 8.05312 -0.902946
LeftLeg  16.566 -0.273199 0.113765
LeftFoot  -4.57744 -0.121655 2.52767
LeftToes  -2.53752e-010 -2.07034e-011 -2.70101e-011
617
root  80.4191 38.787 2.06857 -156.695 -83.4399 157.445
RightUpLeg  -0.858083 -4.84892 -9.37193
RightLeg  15.31 3.30339 -0.057628
RightFoot  -11.5362 -0.0696044 5.0431
RightToes  1.45519e-009 0 -3.6325e-017
Spine  8.67867 -0.509657 -1.42521
Spine1  6.20426 -0.425648 -0.591864
HEad  -8.45592 -22.0926 -6.39953
LeftShoulder1  -0.347601 4.43602 -31.147
LeftArm  -5.62042 0.31785 -43.0108
LeftForeArm  21.103 -14.8607 -5.64621
LeftHand  0.113214 11.9527 3.05062
RightShoulder  -0.882071 -5.93383 29.7025
RightArm  27.5894 2.50288 51.0651
RightForeArm  5.23135 20.4374 5.03382
RightHand  -0.21172 4.66568 -2.74515
LeftUpLeg  -10.5983 8.1174 -0.686244
LeftLeg  16.4655 -0.719956 -0.0288661
LeftFoot  -4.4249 -0.125878 2.525
LeftToes  -2.53752e-010 -2.07034e-011 -2.70101e-011
618
root  80.5435 38.8128 1.87269 -155.586 -83.3015 156.19
RightUpLeg  -0.57581 -5.6103 -9.26656
RightLeg  14.7121 4.01932 -0.0340224
RightFoot  -11.5517 -0.0703533 4.36624
RightToes  1.45519e-009 0 -3.6325e-017
Spine  8.36239 -0.282959 -1.5087
Spine1  6.31145 -0.249755 -0.292842
HEad  -8.01299 -22.065 -6.67332
LeftShoulder1  -0.303999 4.32051 -31.0816
LeftArm  -4.30601 -0.12646 -43.8761
LeftForeArm  20.3683 -16.5202 -5.24475
LeftHand  0.0597236 10.7589 2.39461
RightShoulder  -0.854037 -5.8622 29.6068
RightArm  28.0108 2.7102 51.2788
RightForeArm  4.28744 22.037 4.79456
RightHand  -0.212553 6.62653 -2.38426
LeftUpLeg  -10.1812 8.46179 -0.486974
LeftLeg  15.6189 -0.933087 -0.19665
LeftFoot  -3.96778 -0.122111 2.2679
LeftToes  -2.53752e-010 -2.07034e-011 -2.70101e-011
